# xmcd CD database file
#
# Track frame offsets:
#	150
#	17325
#	38925
#	65961
#	80392
#	111649
#	123774
#	146714
#	166048
#	187574
#	201027
#
# Disc length: 2899 seconds
#
# Revision: 0
# Processed by: cddbd v1.5.2PL0 Copyright (c) Steve Scherf et al.
# Submitted via: CDex 1.50
#
DISCID=8d0b510b
DTITLE=Gram Parsons and The Fallen Angels - Live 1973
DYEAR=1973
DGENRE=Country-rock
TTITLE0=We'll Sweep Out The Ashes (In The Morning)
TTITLE1=Big Mouth Blues
TTITLE2=New Soft Shoe
TTITLE3=Streets Of Baltimore
TTITLE4=Cry One More Time
TTITLE5=California Cottonfields
TTITLE6=Love Hurts
TTITLE7=Country Baptizing
TTITLE8=Drug Store Truck Drivin' Man
TTITLE9=That's All It Took
TTITLE10=Six Days On The Road
EXTD=YEAR: 1973
EXTT0=
EXTT1=
EXTT2=
EXTT3=
EXTT4=
EXTT5=
EXTT6=
EXTT7=
EXTT8=
EXTT9=
EXTT10=
PLAYORDER=
